<?xml version="1.0" encoding="UTF-8"?>
<svg version="1.1" xmlns="http://www.w3.org/2000/svg" width="545" height="153">
<path d="M0 0 C179.85 0 359.7 0 545 0 C545 50.49 545 100.98 545 153 C365.15 153 185.3 153 0 153 C0 102.51 0 52.02 0 0 Z " fill="#FEDC00" transform="translate(0,0)"/>
<path d="M0 0 C1.65 0 3.3 0 5 0 C5.19018656 7.47274679 4.4488891 14.65518103 3.5 22.0625 C3.35691406 23.21427734 3.21382813 24.36605469 3.06640625 25.55273438 C2.71581648 28.36913886 2.36024128 31.18481659 2 34 C3.4585872 33.35474023 4.91686137 32.7087728 6.375 32.0625 C7.59316406 31.52302734 7.59316406 31.52302734 8.8359375 30.97265625 C10.23683785 30.3430097 11.62625284 29.68687358 13 29 C13.55010275 26.20245661 13.55010275 26.20245661 13.81640625 22.8125 C13.94080078 21.55695313 14.06519531 20.30140625 14.19335938 19.0078125 C14.3170217 17.67193183 14.4400609 16.33599334 14.5625 15 C14.80815616 12.39522475 15.06109878 9.79136888 15.31640625 7.1875 C15.42412354 6.02605469 15.53184082 4.86460938 15.64282227 3.66796875 C16 1 16 1 17 0 C18.66617115 -0.04063832 20.33388095 -0.042721 22 0 C22.38178283 11.43227487 21.21086752 22.64650681 20 34 C21.64703306 33.18993474 23.29259506 32.3768779 24.9375 31.5625 C25.85402344 31.11003906 26.77054687 30.65757813 27.71484375 30.19140625 C29.90528904 29.19474606 29.90528904 29.19474606 31 28 C31.29631765 26.44213197 31.56205019 24.8783965 31.8125 23.3125 C32.71090069 18.59758509 33.96442187 15.69961085 37 12 C39.79870027 10.60064987 41.90498792 10.74734595 45 11 C46.875 12 46.875 12 48 14 C48.55063833 19.59815632 48.17191969 23.1874322 45 28 C40.78947368 32 40.78947368 32 37 32 C37.99 34.475 37.99 34.475 39 37 C42.5396309 36.75304901 44.73989371 36.16552219 47.75 34.25 C50.69899281 29.99034371 50.95752586 26.24826661 51.4453125 21.15625 C52.04319146 17.75423452 52.96258545 15.76854417 55 13 C58.46923881 10.68717413 59.92205575 10.57521414 64 11 C66.21826181 12.62846514 66.91319376 13.54563579 67.43359375 16.26953125 C67.44240105 22.00308058 67.00270933 25.55254518 63 30 C60.32655486 31.78229676 59.26229641 32 56 32 C56.99 34.475 56.99 34.475 58 37 C60.84033099 37.05680662 62.43153471 37.08526703 65 36 C66.80318699 33.75131976 68.1716416 31.46679462 69.54296875 28.93359375 C70.02378906 28.29550781 70.50460937 27.65742187 71 27 C72.32 27 73.64 27 75 27 C74.41002512 33.19473623 71.96109273 36.80819048 67.875 41.375 C63.66159163 43.75649169 59.73308312 43.8300854 55 43 C52.375 41 52.375 41 51 39 C50.566875 39.474375 50.13375 39.94875 49.6875 40.4375 C46.36011168 43.51841511 42.46039262 43.33104618 38.1640625 43.2890625 C36 43 36 43 33.4375 41.1875 C32 39 32 39 32 36 C30.35 36.66 28.7 37.32 27 38 C27.495 39.175625 27.495 39.175625 28 40.375 C29.63582408 46.30486228 29.86131277 51.70316596 27.6875 57.5 C26 60 26 60 23 62 C20.5625 62.4375 20.5625 62.4375 18 62 C14.38556688 58.28516596 12.95274942 55.10223898 12.68359375 49.98828125 C12.64169922 49.23095703 12.59980469 48.47363281 12.55664062 47.69335938 C12.51732422 46.90767578 12.47800781 46.12199219 12.4375 45.3125 C12.39431641 44.51521484 12.35113281 43.71792969 12.30664062 42.89648438 C12.20072632 40.93118553 12.09987449 38.96561504 12 37 C11.34 37.66 10.68 38.32 10 39 C10.495 39.928125 10.495 39.928125 11 40.875 C12.81091635 46.53411359 12.77328108 51.93791712 10.6875 57.5 C9 60 9 60 6 62 C2.5 62 2.5 62 -1 61 C-4.79466269 55.70310242 -4.35210639 50.35471876 -4.1875 44.125 C-4.17396484 43.15046875 -4.16042969 42.1759375 -4.14648438 41.171875 C-4.11131962 38.78067137 -4.0621067 36.39063025 -4 34 C-6.01083949 34.26006857 -8.01266691 34.59798224 -10 35 C-11.16666667 36.91666667 -11.16666667 36.91666667 -12 39 C-16.14617616 41.56408262 -20.25627039 41.84387591 -25 41 C-27.44892991 39.5685481 -28.9942314 38.05719856 -31 36 C-32.3921875 36.9590625 -32.3921875 36.9590625 -33.8125 37.9375 C-38.36938237 40.88607095 -41.60713671 41.47305818 -47 41 C-49.36497439 39.13291495 -50.66030715 37.67938569 -52 35 C-53.32301424 19.53963362 -53.32301424 19.53963362 -48.5625 13.33203125 C-45.80040224 10.97734291 -43.53157152 10.80736883 -40 11 C-37.5625 11.875 -37.5625 11.875 -36 14 C-35.56009166 17.04594763 -35.50385997 19.95970005 -36 23 C-36.66 23.66 -37.32 24.32 -38 25 C-40.125 24.625 -40.125 24.625 -42 24 C-42.33 21.69 -42.66 19.38 -43 17 C-45.49118953 20.7367843 -45.2065226 22.74451819 -45.125 27.1875 C-45.09792969 29.09595703 -45.09792969 29.09595703 -45.0703125 31.04296875 C-45.04710937 32.01878906 -45.02390625 32.99460938 -45 34 C-41.49133024 34.88163519 -40.29660258 35.11631474 -36.8125 33.75 C-33.79602121 32.14189118 -33.79602121 32.14189118 -32 29 C-31.68181232 27.57223477 -31.41461527 26.13255211 -31.1875 24.6875 C-30.18448367 19.83827146 -28.53516687 17.45099623 -25 14 C-20.57865821 11.28563194 -16.04545206 11.30320712 -11 12 C-7.90200019 14.19126816 -7.19647888 15.41056336 -6 19 C-5.93197033 20.72795352 -5.91504355 22.45835365 -5.9375 24.1875 C-5.94652344 25.08855469 -5.95554687 25.98960938 -5.96484375 26.91796875 C-5.97644531 27.60503906 -5.98804688 28.29210937 -6 29 C-5.34 28.67 -4.68 28.34 -4 28 C-3.56359185 25.86967545 -3.56359185 25.86967545 -3.4375 23.30078125 C-3.36273438 22.33849609 -3.28796875 21.37621094 -3.2109375 20.38476562 C-3.14132812 19.37091797 -3.07171875 18.35707031 -3 17.3125 C-2.15760253 5.2771362 -2.15760253 5.2771362 0 0 Z " fill="#161421" transform="translate(421,54)"/>
<path d="M0 0 C2.13098568 -0.00217177 4.26144087 -0.02029624 6.39233398 -0.03930664 C23.32392403 -0.11130781 23.32392403 -0.11130781 28.34350586 4.24780273 C29.8681515 7.00389292 30.35789778 8.77348767 30.90600586 11.81030273 C31.51547857 15.54633361 31.51547857 15.54633361 34.46850586 17.93530273 C35.70600586 18.55405273 35.70600586 18.55405273 36.96850586 19.18530273 C39.24908971 23.09487505 39.45501375 26.72564704 38.96850586 31.18530273 C36.74987557 34.09247346 35.44905657 35.02511916 31.96850586 36.18530273 C30.63412223 43.77237623 29.72204253 51.32247088 29.07397461 58.99389648 C28.99873566 59.85584625 28.9234967 60.71779602 28.84597778 61.60586548 C28.53341881 65.18871055 28.22178786 68.77113502 27.94482422 72.35693359 C27.73726962 75.00891423 27.50177252 77.65720829 27.26147461 80.30639648 C27.20606003 81.10959824 27.15064545 81.91279999 27.09355164 82.74034119 C26.54427551 88.42744656 25.10589139 91.20156017 20.96850586 95.18530273 C16.19288083 98.49434564 10.10363491 97.51360713 4.53100586 97.49780273 C3.39856445 97.51391602 2.26612305 97.5300293 1.09936523 97.54663086 C0.0055957 97.54727539 -1.08817383 97.54791992 -2.21508789 97.54858398 C-3.21080811 97.55156494 -4.20652832 97.5545459 -5.23242188 97.55761719 C-9.31439576 97.01465947 -11.76828656 95.34951229 -14.75732422 92.59472656 C-16.76597395 88.79641957 -16.97552089 84.86867042 -17.41821289 80.63452148 C-17.52494827 79.70235306 -17.63168365 78.77018463 -17.74165344 77.80976868 C-17.96496491 75.83932791 -18.18228808 73.86820055 -18.39404297 71.89648438 C-18.71683623 68.89288214 -19.05703249 65.89166668 -19.40063477 62.89038086 C-19.61585217 60.97187574 -19.83007724 59.05325899 -20.04321289 57.13452148 C-20.14317062 56.24262619 -20.24312836 55.3507309 -20.34611511 54.43180847 C-20.85629553 49.6502272 -21.13468898 44.99385607 -21.03149414 40.18530273 C-19.37534757 39.80311506 -17.7069239 39.47135172 -16.03149414 39.18530273 C-14.48985936 40.72693752 -14.70601067 42.31264883 -14.49072266 44.45800781 C-14.39714981 45.3659761 -14.30357697 46.2739444 -14.20716858 47.20942688 C-14.10923508 48.19791122 -14.01130157 49.18639557 -13.91040039 50.20483398 C-13.69508481 52.27972238 -13.47958419 54.35459158 -13.26391602 56.42944336 C-12.92763345 59.7144008 -12.59381595 62.99957603 -12.26367188 66.28515625 C-11.94431573 69.44661564 -11.6154135 72.60697187 -11.28540039 75.76733398 C-11.18949112 76.74974564 -11.09358185 77.73215729 -10.99476624 78.74433899 C-10.89804123 79.66176376 -10.80131622 80.57918854 -10.70166016 81.52441406 C-10.5796096 82.73234367 -10.5796096 82.73234367 -10.45509338 83.9646759 C-9.99785386 86.36165456 -9.30280519 88.10635464 -8.03149414 90.18530273 C-4.15268809 92.12470576 0.63964722 91.41371458 4.90600586 91.43530273 C5.92114258 91.45592773 6.9362793 91.47655273 7.98217773 91.49780273 C9.44300781 91.50553711 9.44300781 91.50553711 10.93334961 91.51342773 C11.82658936 91.52277344 12.7198291 91.53211914 13.64013672 91.54174805 C15.99837103 91.35446507 15.99837103 91.35446507 17.73046875 89.96777344 C19.30239808 87.70457958 19.52505801 86.07493732 19.81225586 83.33764648 C19.9227124 82.35143311 20.03316895 81.36521973 20.14697266 80.34912109 C20.25307861 79.28443604 20.35918457 78.21975098 20.46850586 77.12280273 C20.58814697 76.02911377 20.70778809 74.9354248 20.83105469 73.80859375 C21.08567705 71.48026337 21.33527842 69.15137942 21.58032227 66.82202148 C22.22838972 60.75056685 22.94772364 54.68746924 23.65600586 48.62280273 C24.09511238 44.81048639 24.53209561 40.99792859 24.96850586 37.18530273 C23.93556396 37.19053955 22.90262207 37.19577637 21.83837891 37.20117188 C17.95622648 37.21945794 14.07407776 37.23081983 10.19189453 37.24023438 C8.52098955 37.24522119 6.85008884 37.25201305 5.17919922 37.26074219 C-21.62948217 37.39715272 -21.62948217 37.39715272 -28.03149414 33.18530273 C-29.90433859 29.43961384 -29.35776677 25.38163569 -28.28149414 21.43530273 C-26.78287566 18.73778947 -25.73254531 17.69088034 -23.03149414 16.18530273 C-20.01196289 16.32983398 -20.01196289 16.32983398 -16.21899414 16.99780273 C-7.31543072 18.36380085 1.54904413 18.36384209 10.53100586 18.31030273 C11.24269928 18.3064859 11.9543927 18.30266907 12.68765259 18.29873657 C16.78145252 18.27437539 20.87494932 18.23573988 24.96850586 18.18530273 C24.30850586 14.55530273 23.64850586 10.92530273 22.96850586 7.18530273 C16.34682842 6.31688602 9.82528503 6.07558027 3.15600586 6.06030273 C2.33189209 6.05579102 1.50777832 6.0512793 0.65869141 6.04663086 C-0.52793091 6.04953125 -0.52793091 6.04953125 -1.73852539 6.05249023 C-2.44468994 6.05361816 -3.15085449 6.05474609 -3.87841797 6.0559082 C-6.52728784 6.16578135 -6.52728784 6.16578135 -11.03149414 7.18530273 C-0.80149414 7.51530273 9.42850586 7.84530273 19.96850586 8.18530273 C19.96850586 9.83530273 19.96850586 11.48530273 19.96850586 13.18530273 C15.4951451 15.42198312 9.37904021 14.41542203 4.46850586 14.43530273 C3.22584961 14.45592773 1.98319336 14.47655273 0.70288086 14.49780273 C-6.57750304 14.52852165 -13.30489477 14.21192174 -20.03149414 11.18530273 C-20.69149414 10.52530273 -21.35149414 9.86530273 -22.03149414 9.18530273 C-21.96899414 6.74780273 -21.96899414 6.74780273 -21.03149414 4.18530273 C-14.50166185 -0.62615264 -7.73046556 -0.00088237 0 0 Z " fill="#181520" transform="translate(78.031494140625,27.814697265625)"/>
<path d="M0 0 C0.83256139 2.83994591 1.07101854 5.11979109 0.80981445 8.0625 C0.74256668 8.85011719 0.67531891 9.63773438 0.60603333 10.44921875 C0.52592514 11.29097656 0.44581696 12.13273437 0.36328125 13 C0.28256882 13.87269531 0.20185638 14.74539062 0.11869812 15.64453125 C-0.05500251 17.48734177 -0.23260053 19.32978851 -0.41381836 21.171875 C-0.68636199 23.98824023 -0.93241375 26.80615042 -1.17773438 29.625 C-1.34993348 31.41682397 -1.52370912 33.20849727 -1.69921875 35 C-1.76920578 35.84175781 -1.83919281 36.68351562 -1.91130066 37.55078125 C-2.30212347 41.25905787 -2.60785003 43.45602462 -4.82177734 46.52709961 C-8.42811979 48.96568558 -11.70268244 48.62032482 -15.9375 48.5625 C-17.13536133 48.59827148 -17.13536133 48.59827148 -18.35742188 48.63476562 C-19.13537109 48.63283203 -19.91332031 48.63089844 -20.71484375 48.62890625 C-21.76853149 48.6299939 -21.76853149 48.6299939 -22.84350586 48.63110352 C-26.30232248 47.618872 -27.79781621 45.80220653 -30 43 C-30.64113153 40.32481231 -30.98660556 38.16732789 -31.14453125 35.46875 C-31.20404465 34.75521362 -31.26355804 34.04167725 -31.32487488 33.30651855 C-31.50873469 31.03875398 -31.66082107 28.77011996 -31.8125 26.5 C-31.9322049 24.97509891 -32.05393022 23.450355 -32.17773438 21.92578125 C-33.08090184 10.46712302 -33.08090184 10.46712302 -33 5 C-32.03513672 5.08701172 -32.03513672 5.08701172 -31.05078125 5.17578125 C-23.80486851 5.53756006 -18.73688031 3.92588711 -12.10546875 1.11328125 C-7.82371852 -0.42168581 -4.49785676 -0.3811743 0 0 Z " fill="#FFFEFA" transform="translate(99,70)"/>
<path d="M0 0 C2.125 0.375 2.125 0.375 4 1 C4.31732638 8.77449624 3.11855299 16.32992235 2 24 C5.08658165 23.34525459 5.08658165 23.34525459 6.0625 21.1015625 C8.16452343 15.54871727 9.89469077 10.0243394 11.2890625 4.25 C12 2 12 2 14 0 C16.125 0.375 16.125 0.375 18 1 C18.29883729 8.47093223 17.15925507 15.63044989 16 23 C19.66021724 19.90914989 20.53964937 17.84868504 21.0625 13.125 C21.70016148 8.42583705 22.53564274 5.0325846 25 1 C27.475 1.495 27.475 1.495 30 2 C29.855625 3.11375 29.71125 4.2275 29.5625 5.375 C28.43801118 13.66327774 28.43801118 13.66327774 28 22 C32.153442 20.92010508 34.22884538 20.10189814 36.73046875 16.52734375 C38.74650809 12.82878269 40.56849951 9.1555163 42.04296875 5.20703125 C43 3 43 3 45 2.0625 C45.66 2.041875 46.32 2.02125 47 2 C47.66 2.66 48.32 3.32 49 4 C48.72105162 5.67662658 48.37638031 7.34252398 48 9 C47.9340265 11.10323534 47.91437755 13.20835724 47.9375 15.3125 C47.94652344 16.38113281 47.95554688 17.44976562 47.96484375 18.55078125 C47.97644531 19.35902344 47.98804688 20.16726562 48 21 C48.7425 20.195625 49.485 19.39125 50.25 18.5625 C52.75304829 16.23011409 53.7180955 15.36465606 57 15 C57.875 17.0625 57.875 17.0625 58 20 C55.3319362 24.44042046 52.09802813 27.65052197 47 29 C47.061875 30.11375 47.12375 31.2275 47.1875 32.375 C47.16405128 38.97581417 45.56155226 44.78780097 41.75 50.1875 C39 52 39 52 35.375 52.0625 C32 51 32 51 30 49.5 C28.39405212 45.48513031 28.80429289 42.11270686 30 38 C32.56607986 33.07249696 35.8282691 28.69037733 40 25 C39.67 24.67 39.34 24.34 39 24 C38.525625 24.474375 38.05125 24.94875 37.5625 25.4375 C33.93956612 27.64660603 30.2267431 28.15627043 26 28 C23.71875 27.01171875 23.71875 27.01171875 22 26 C21.4740625 26.7734375 21.4740625 26.7734375 20.9375 27.5625 C19 29 19 29 15.3125 28.6875 C14.219375 28.460625 13.12625 28.23375 12 28 C12 27.34 12 26.68 12 26 C11.34 26.66 10.68 27.32 10 28 C5.88044169 30.74637221 3.88445953 30.63025284 -1 30 C-3.34023808 27.75528184 -3.95130771 26.38168475 -4.36328125 23.15234375 C-4.0617284 4.0617284 -4.0617284 4.0617284 0 0 Z " fill="#181521" transform="translate(181,66)"/>
<path d="M0 0 C3.10787093 0.69063798 3.91365027 1.14990974 5.8125 3.625 C6.76150776 8.59232892 6.31747071 12.64988415 4 17.125 C1.8125 19.625 1.8125 19.625 -1.1875 21.625 C-2.5075 21.625 -3.8275 21.625 -5.1875 21.625 C-4.5275 23.275 -3.8675 24.925 -3.1875 26.625 C2.04210704 26.34468538 2.04210704 26.34468538 6.125 23.3125 C7.50314278 21.11768002 8.76084752 18.99121807 9.8125 16.625 C11.1325 16.625 12.4525 16.625 13.8125 16.625 C13.22252512 22.81973623 10.77359273 26.43319048 6.6875 31 C2.54531149 33.34123698 -1.52702544 33.46615882 -6.1875 32.625 C-8.49609375 31.09765625 -8.49609375 31.09765625 -10.1875 29.625 C-10.909375 30.12 -11.63125 30.615 -12.375 31.125 C-15.42608583 32.75224578 -16.80827589 33.31817418 -20.1875 32.625 C-22.5 30.8125 -22.5 30.8125 -24.1875 27.625 C-24.94736505 20.96562716 -24.05463159 14.23687834 -23.1875 7.625 C-26.22529434 8.28841212 -26.22529434 8.28841212 -27.28515625 10.33984375 C-29.74846733 16.01443485 -31.21853001 21.51793913 -32.1875 27.625 C-33.84364657 28.00718767 -35.51207024 28.33895102 -37.1875 28.625 C-38.73700268 27.07549732 -38.40405193 25.52509406 -38.50390625 23.37109375 C-38.54580078 22.51708984 -38.58769531 21.66308594 -38.63085938 20.78320312 C-38.67017578 19.88537109 -38.70949219 18.98753906 -38.75 18.0625 C-38.79318359 17.16080078 -38.83636719 16.25910156 -38.88085938 15.33007812 C-38.98728142 13.09521515 -39.08929988 10.86023692 -39.1875 8.625 C-42.26307691 9.14689927 -42.26307691 9.14689927 -44.3828125 11.26953125 C-46.77738621 16.85351615 -47.97956608 22.19804983 -48.79296875 28.21875 C-49.1875 30.625 -49.1875 30.625 -50.1875 31.625 C-51.8375 31.625 -53.4875 31.625 -55.1875 31.625 C-55.1875 22.385 -55.1875 13.145 -55.1875 3.625 C-53.5375 3.295 -51.8875 2.965 -50.1875 2.625 C-49.5275 3.285 -48.8675 3.945 -48.1875 4.625 C-47.65125 4.13 -47.115 3.635 -46.5625 3.125 C-43.42837057 1.14554983 -41.84399759 1.03996039 -38.1875 1.625 C-35.91966487 3.10940117 -34.16579728 4.74090735 -32.1875 6.625 C-31.48625 5.8 -30.785 4.975 -30.0625 4.125 C-27.1875 1.625 -27.1875 1.625 -24.125 1.0625 C-20.32340733 1.79046455 -19.40594348 2.43214425 -17.1875 5.625 C-16.68892429 9.21894765 -16.812195 12.75561331 -16.9375 16.375 C-16.95554687 17.35855469 -16.97359375 18.34210938 -16.9921875 19.35546875 C-17.03925874 21.77963783 -17.10499258 24.20182059 -17.1875 26.625 C-12.60437865 22.15939458 -11.23179422 20.20889781 -10.5 13.9375 C-9.66818467 8.8172145 -8.52390164 5.46650286 -4.83984375 1.7734375 C-3.1875 0.625 -3.1875 0.625 0 0 Z " fill="#171421" transform="translate(303.1875,64.375)"/>
<path d="M0 0 C2.125 0.375 2.125 0.375 4 1 C4 1.66 4 2.32 4 3 C4.66 2.67 5.32 2.34 6 2 C10.77080489 1.48492195 14.74036502 1.35732909 19.0625 3.5625 C21.63965723 6.80473006 21.93007142 8.87421364 22 13 C21.608125 14.19625 21.21625 15.3925 20.8125 16.625 C20.544375 17.73875 20.27625 18.8525 20 20 C21.32255312 21.67523395 22.65705519 23.34106818 24 25 C24.65674029 28.11808869 24.65200828 30.88169953 24 34 C20.99799877 38.06153108 17.6295911 40.10095568 13 42 C10.04903959 42.36555005 7.1561708 42.33098676 4.1875 42.25 C3.41212891 42.24484375 2.63675781 42.2396875 1.83789062 42.234375 C-3.84517802 42.15482198 -3.84517802 42.15482198 -5 41 C-4.95975082 38.58814527 -4.8500907 36.21727331 -4.6875 33.8125 C-4.61583618 32.70442993 -4.61583618 32.70442993 -4.54272461 31.57397461 C-4.37237974 29.04844932 -4.18817204 26.52425912 -4 24 C-3.9287793 23.03384766 -3.85755859 22.06769531 -3.78417969 21.07226562 C-3.55627809 18.06784372 -3.31225069 15.06517886 -3.0625 12.0625 C-2.98797607 11.09739502 -2.91345215 10.13229004 -2.83666992 9.13793945 C-2.75779541 8.237771 -2.6789209 7.33760254 -2.59765625 6.41015625 C-2.53070557 5.60715088 -2.46375488 4.80414551 -2.39477539 3.97680664 C-2 2 -2 2 0 0 Z " fill="#161421" transform="translate(152,53)"/>
<path d="M0 0 C2.74402342 0.86836184 5.33482409 1.89716859 8 3 C7.85769192 4.41702513 7.71099254 5.8336096 7.5625 7.25 C7.48128906 8.03890625 7.40007812 8.8278125 7.31640625 9.640625 C7 12 7 12 6.46875 14.0625 C5.75030077 17.03209015 5.94155395 19.96080554 6 23 C7.32 23 8.64 23 10 23 C11.65 19.7 13.3 16.4 15 13 C16.32 13.33 17.64 13.66 19 14 C18.58171823 19.5770903 16.38585455 23.65514618 13 28 C9.48746854 30.34168764 8.13530644 30.49623677 4 30 C1.125 28 1.125 28 -1 26 C-1.99 26.66 -2.98 27.32 -4 28 C-6.74183195 28.52514926 -9.25833299 28.53690979 -12 28 C-14.81631379 25.27169601 -15.216394 22.59140258 -15.4375 18.8125 C-15.1952169 12.2268047 -13.05197061 6.26796752 -8.625 1.375 C-5.34065178 -0.34537288 -3.67738612 -0.50473927 0 0 Z " fill="#151321" transform="translate(341,66)"/>
<path d="M0 0 C2.40761022 0.26888587 4.79076916 0.59114382 7.1875 0.9375 C14.38885109 1.88739548 21.48833486 2.19777794 28.75 2.1875 C29.68996826 2.18806396 30.62993652 2.18862793 31.59838867 2.18920898 C35.89939596 2.15535504 39.78209713 1.88080885 44 1 C45.76977761 0.93540958 47.54170152 0.91388935 49.3125 0.9375 C50.63701172 0.95103516 50.63701172 0.95103516 51.98828125 0.96484375 C52.98408203 0.98224609 52.98408203 0.98224609 54 1 C54.625 3.375 54.625 3.375 55 6 C49.58108877 11.41891123 35.56306832 9.85040395 28.2421875 10.00830078 C1.94096331 9.94096331 1.94096331 9.94096331 -1 7 C-1.125 4 -1.125 4 -1 1 C-0.67 0.67 -0.34 0.34 0 0 Z " fill="#F7D601" transform="translate(56,50)"/>
<path d="M0 0 C0.33 0 0.66 0 1 0 C3.23877975 9.82748644 1.90344311 20.09465862 0.75 30 C0.64042969 31.10472656 0.53085938 32.20945313 0.41796875 33.34765625 C0.23427734 34.93900391 0.23427734 34.93900391 0.046875 36.5625 C-0.11022949 37.98755859 -0.11022949 37.98755859 -0.27050781 39.44140625 C-1.19227193 42.67436742 -2.32312689 43.98624817 -5 46 C-7.41015625 46.51757812 -7.41015625 46.51757812 -10.0625 46.53125 C-11.02414063 46.53640625 -11.98578125 46.5415625 -12.9765625 46.546875 C-13.97429687 46.53140625 -14.97203125 46.5159375 -16 46.5 C-17.49660156 46.52320312 -17.49660156 46.52320312 -19.0234375 46.546875 C-26.30065862 46.50785505 -26.30065862 46.50785505 -29.625 44.09375 C-31.92712882 40.58823567 -32.30911989 38.03110522 -32.75390625 33.85546875 C-32.88603516 32.62119141 -33.01816406 31.38691406 -33.15429688 30.11523438 C-33.28900391 28.81908203 -33.42371094 27.52292969 -33.5625 26.1875 C-33.70107422 24.90294922 -33.83964844 23.61839844 -33.98242188 22.29492188 C-35.08945898 11.81896974 -35.08945898 11.81896974 -35 7 C-34.67 8.32 -34.34 9.64 -34 11 C-33.34 11 -32.68 11 -32 11 C-31.77956875 12.96462026 -31.5593793 14.92926792 -31.34033203 16.89404297 C-31.15464624 18.55216159 -30.96680973 20.21004073 -30.77685547 21.86767578 C-30.20330003 26.92593598 -29.7397073 31.96560578 -29.5390625 37.0546875 C-28.69314015 40.1073638 -27.60601414 41.183443 -25 43 C-21.96403758 43.50951107 -19.00636038 43.42218921 -15.9375 43.3125 C-15.12216797 43.30283203 -14.30683594 43.29316406 -13.46679688 43.28320312 C-10.00538115 43.21778607 -7.3124459 43.10414863 -4 42 C-2.02 21.21 -2.02 21.21 0 0 Z " fill="#EED010" transform="translate(99,74)"/>
<path d="M0 0 C0.97066406 -0.01417969 1.94132813 -0.02835937 2.94140625 -0.04296875 C5.4375 0.1875 5.4375 0.1875 7.4375 2.1875 C7.875 5.0625 7.875 5.0625 7.4375 8.1875 C4.43109547 11.19390453 1.74673399 13.07711597 -2.60546875 13.28515625 C-3.31316406 13.27355469 -4.02085937 13.26195313 -4.75 13.25 C-6.6371875 13.2190625 -6.6371875 13.2190625 -8.5625 13.1875 C-9.72313604 8.93183453 -9.32423392 5.5039922 -8.5625 1.1875 C-5.47951949 0.15983983 -3.23119574 0.02151262 0 0 Z " fill="#F9D800" transform="translate(162.5625,76.8125)"/>
<path d="M0 0 C6.27 0 12.54 0 19 0 C19 6.27 19 12.54 19 19 C17.87385407 17.31078111 16.76215384 15.61099257 15.703125 13.87890625 C11.55951033 7.27362803 7.46049286 3.63311513 0 1 C0 0.67 0 0.34 0 0 Z " fill="#FFFDF7" transform="translate(526,0)"/>
<path d="M0 0 C0.33 0 0.66 0 1 0 C1 6.27 1 12.54 1 19 C-5.27 19 -11.54 19 -18 19 C-16.68 18.34 -15.36 17.68 -14 17 C-7.13307078 12.54722558 -2.77163899 7.85297713 0 0 Z " fill="#FFFEF8" transform="translate(544,134)"/>
<path d="M0 0 C1.9375 1.1875 1.9375 1.1875 3 3 C2.9243421 6.02631583 2.45824903 7.48676108 0.4375 9.75 C-3.02813365 11.52724802 -6.125031 11.67708592 -10 12 C-10 8.7 -10 5.4 -10 2 C-5.99186716 -0.00406642 -4.33794733 -0.46148376 0 0 Z " fill="#F2D201" transform="translate(165,60)"/>
<path d="M0 0 C2 2 2 2 3.6875 5.25 C6.86745276 10.93357228 11.72531862 15.0985814 18 17 C18 17.33 18 17.66 18 18 C12.06 18 6.12 18 0 18 C0 12.06 0 6.12 0 0 Z " fill="#FFFDF7" transform="translate(0,135)"/>
<path d="M0 0 C5.94 0 11.88 0 18 0 C16 2 16 2 13.3125 3.125 C7.59714313 6.36010766 2.80979751 11.56516441 1 18 C0.67 18 0.34 18 0 18 C0 12.06 0 6.12 0 0 Z " fill="#FFFEF8" transform="translate(0,0)"/>
<path d="M0 0 C0.66 0 1.32 0 2 0 C2.16435547 0.90492187 2.16435547 0.90492187 2.33203125 1.828125 C3.23250076 6.36707698 4.05361848 9.35209907 7 13 C6.67 13.99 6.34 14.98 6 16 C3.69 16.33 1.38 16.66 -1 17 C-3.11005784 14.71410401 -3.95451737 13.29238835 -4.4375 10.1875 C-3.86173887 5.99266889 -2.27477101 3.55432971 0 0 Z " fill="#F0D002" transform="translate(399,73)"/>
<path d="M0 0 C2.0625 0.4375 2.0625 0.4375 4 1 C3.73425934 6.97916482 3.16474492 11.35928423 -1 16 C-2.32 16 -3.64 16 -5 16 C-5.51257038 9.59287031 -5.13597047 6.01329753 -1 1 C-0.67 0.67 -0.34 0.34 0 0 Z " fill="#F3D201" transform="translate(337,72)"/>
<path d="M0 0 C0.33 1.32 0.66 2.64 1 4 C1.66 4 2.32 4 3 4 C3.22043125 5.96462026 3.4406207 7.92926792 3.65966797 9.89404297 C3.84535376 11.55216159 4.03319027 13.21004073 4.22314453 14.86767578 C4.71481235 19.20375843 5.1060029 23.51855916 5.375 27.875 C5.67365665 31.16022319 5.83305641 31.80270303 8.0625 34.4375 C8.701875 34.953125 9.34125 35.46875 10 36 C10 36.99 10 37.98 10 39 C5.35138188 37.53201533 5.35138188 37.53201533 3.88916016 35.31811523 C2.77620815 32.41655583 2.4664431 29.75237158 2.1484375 26.66015625 C2.01953125 25.43232422 1.890625 24.20449219 1.7578125 22.93945312 C1.63148437 21.66005859 1.50515625 20.38066406 1.375 19.0625 C1.2409375 17.78697266 1.106875 16.51144531 0.96875 15.19726562 C-0.08620999 4.93293553 -0.08620999 4.93293553 0 0 Z " fill="#EDCF0D" transform="translate(64,81)"/>
<path d="M0 0 C0.82886719 -0.00386719 1.65773438 -0.00773437 2.51171875 -0.01171875 C6.95452576 -0.00465546 11.12702514 0.23052787 15.5 1.125 C15.17 1.785 14.84 2.445 14.5 3.125 C4.93 3.125 -4.64 3.125 -14.5 3.125 C-14.83 2.465 -15.16 1.805 -15.5 1.125 C-10.29360559 0.06005569 -5.28688032 -0.02466663 0 0 Z " fill="#DFC104" transform="translate(81.5,32.875)"/>
<path d="M0 0 C1.98046875 1.18359375 1.98046875 1.18359375 4 3 C4.42578125 5.41015625 4.42578125 5.41015625 4.3125 8.0625 C4.28800781 8.94035156 4.26351563 9.81820312 4.23828125 10.72265625 C4 13 4 13 3 15 C1.68 14.67 0.36 14.34 -1 14 C-1.02685938 11.85423363 -1.04633088 9.70837355 -1.0625 7.5625 C-1.07410156 6.36753906 -1.08570313 5.17257813 -1.09765625 3.94140625 C-1 1 -1 1 0 0 Z " fill="#EBCB02" transform="translate(423,94)"/>
<path d="M0 0 C0.33 0 0.66 0 1 0 C0.6875 3.375 0.6875 3.375 0 7 C-3.20406462 9.13604308 -3.99600747 9.24208908 -7.66796875 9.1953125 C-8.56064453 9.18886719 -9.45332031 9.18242188 -10.37304688 9.17578125 C-11.76620117 9.15064453 -11.76620117 9.15064453 -13.1875 9.125 C-14.12787109 9.11597656 -15.06824219 9.10695313 -16.03710938 9.09765625 C-18.35832968 9.07409056 -20.67903644 9.04119116 -23 9 C-23 8.34 -23 7.68 -23 7 C-21.73542969 6.93941406 -20.47085938 6.87882812 -19.16796875 6.81640625 C-17.50780129 6.73199096 -15.84764563 6.64734345 -14.1875 6.5625 C-13.35412109 6.52318359 -12.52074219 6.48386719 -11.66210938 6.44335938 C-10.85966797 6.40146484 -10.05722656 6.35957031 -9.23046875 6.31640625 C-8.49207764 6.27974854 -7.75368652 6.24309082 -6.99291992 6.20532227 C-4.792505 6.05157859 -4.792505 6.05157859 -2 5 C-0.78130071 2.49552484 -0.78130071 2.49552484 0 0 Z " fill="#FDDB00" transform="translate(97,111)"/>
<path d="M0 0 C4 2 4 2 5 4 C5.35294118 10.47058824 5.35294118 10.47058824 3 14 C2.01 14 1.02 14 0 14 C0 9.38 0 4.76 0 0 Z " fill="#F6D501" transform="translate(440,95)"/>
<path d="M0 0 C0.33 0 0.66 0 1 0 C0.38756458 9.88344059 0.38756458 9.88344059 -3 13 C-3.66 13 -4.32 13 -5 13 C-4.56615128 7.57689095 -3.35497322 4.29855944 0 0 Z " fill="#E4C603" transform="translate(221,99)"/>
<path d="M0 0 C0.33 6.6 0.66 13.2 1 20 C0.01 20 -0.98 20 -2 20 C-1.97679687 19.20335938 -1.95359375 18.40671875 -1.9296875 17.5859375 C-1.76151408 9.605026 -1.76151408 9.605026 -4 2 C-1 0 -1 0 0 0 Z " fill="#EBCC02" transform="translate(434,90)"/>
<path d="M0 0 C0.99 0.33 1.98 0.66 3 1 C2.75 3.875 2.75 3.875 2 7 C-0.0625 8.375 -0.0625 8.375 -2 9 C-2.25 3.375 -2.25 3.375 0 0 Z " fill="#E5C603" transform="translate(461,71)"/>
<path d="M0 0 C0.66 0 1.32 0 2 0 C2.36666667 5.5 2.36666667 5.5 0.625 7.875 C-1 9 -1 9 -3 9 C-2.25 2.25 -2.25 2.25 0 0 Z " fill="#EACB02" transform="translate(302,71)"/>
<path d="M0 0 C0.66 0 1.32 0 2 0 C1.75 3.375 1.75 3.375 1 7 C-1.0625 8.4375 -1.0625 8.4375 -3 9 C-2.25 2.25 -2.25 2.25 0 0 Z " fill="#ECCD02" transform="translate(481,71)"/>
<path d="M0 0 C0.33 0 0.66 0 1 0 C2.26708251 5.06833002 2.97547868 10.5613033 1 15.5 C0.505 16.2425 0.505 16.2425 0 17 C-0.33 17 -0.66 17 -1 17 C-0.67 11.39 -0.34 5.78 0 0 Z " fill="#FADD22" transform="translate(97,95)"/>
<path d="M0 0 C0.66 0 1.32 0 2 0 C2.45375 0.969375 2.9075 1.93875 3.375 2.9375 C4.65786221 6.07079582 4.65786221 6.07079582 7 7 C7 7.99 7 8.98 7 10 C2.37837838 8.54054054 2.37837838 8.54054054 0.6875 6.125 C0 4 0 4 0 0 Z " fill="#E2C408" transform="translate(67,110)"/>
<path d="M0 0 C0.33 0 0.66 0 1 0 C0.6875 3.375 0.6875 3.375 0 7 C-0.99 7.66 -1.98 8.32 -3 9 C-3.99 8.67 -4.98 8.34 -6 8 C-5.34 7.01 -4.68 6.02 -4 5 C-3.34 5 -2.68 5 -2 5 C-1.34 3.35 -0.68 1.7 0 0 Z " fill="#E8CA0A" transform="translate(97,111)"/>
<path d="M0 0 C0.66 0 1.32 0 2 0 C2.625 2.875 2.625 2.875 3 6 C2.34 6.66 1.68 7.32 1 8 C-0.42944945 5.64561267 -1.08661261 4.51967567 -0.625 1.75 C-0.41875 1.1725 -0.2125 0.595 0 0 Z " fill="#DDBF04" transform="translate(407,73)"/>
</svg>
